<mxfile host="app.diagrams.net" modified="2024-02-23T18:00:27.218Z" agent="Mozilla/5.0 (Windows NT 10.0; Win64; x64) AppleWebKit/537.36 (KHTML, like Gecko) Chrome/121.0.0.0 Safari/537.36" version="23.1.2" etag="kf7qU_0S6RKX4fu76F-J" type="github">
  <diagram name="Page-1" id="E77tgRoNjzi7LZY0pQTT">
    <mxGraphModel>
      <root>
        <mxCell id="0" />
        <mxCell id="1" parent="0" />
      </root>
    </mxGraphModel>
  </diagram>
</mxfile>
